<svg xmlns="http://www.w3.org/2000/svg" version="1.1" xmlns:xlink="http://www.w3.org/1999/xlink" xmlns:svgjs="http://svgjs.dev/svgjs" width="1000" height="1000" viewBox="0 0 1000 1000"><rect width="1000" height="1000" fill="#0d203b"></rect><g transform="matrix(0.7,0,0,0.7,149.57576489779302,349.53827512213786)"><svg viewBox="0 0 396 170" data-background-color="#0d203b" preserveAspectRatio="xMidYMid meet" height="429" width="1000" xmlns="http://www.w3.org/2000/svg" xmlns:xlink="http://www.w3.org/1999/xlink"><g id="tight-bounds" transform="matrix(1,0,0,1,0.23999585781996302,0.17647354664524073)"><svg viewBox="0 0 395.52 169.6470588235294" height="169.6470588235294" width="395.52"><g><svg viewBox="0 0 395.52 169.6470588235294" height="169.6470588235294" width="395.52"><g><svg viewBox="0 0 395.52 169.6470588235294" height="169.6470588235294" width="395.52"><g id="textblocktransform"><svg viewBox="0 0 395.52 169.6470588235294" height="169.6470588235294" width="395.52" id="textblock"><g><svg viewBox="0 0 395.52 169.6470588235294" height="169.6470588235294" width="395.52"><g transform="matrix(1,0,0,1,0,0)"><svg width="395.52" viewBox="0.5 -43.349998474121094 101.98999786376953 43.75" height="169.6470588235294" data-palette-color="#f9cc0b"><path d="M14.2 0L5.6 0 5.6-34.7 0.5-34.7 0.5-42.95 19.3-42.95 19.3-34.7 14.2-34.7 14.2 0ZM31.95 0.4Q26.75 0.4 24.05-2.78 21.35-5.95 21.35-11.7L21.35-11.7 21.35-32.15Q21.35-37.7 24.05-40.53 26.75-43.35 31.95-43.35L31.95-43.35Q37.15-43.35 39.85-40.53 42.55-37.7 42.55-32.15L42.55-32.15 42.55-11.7Q42.55-5.9 39.85-2.75 37.15 0.4 31.95 0.4L31.95 0.4ZM31.95-7.5Q33.1-7.5 33.5-8.5 33.9-9.5 33.9-11.3L33.9-11.3 33.9-32.3Q33.9-33.7 33.52-34.58 33.15-35.45 32-35.45L32-35.45Q29.85-35.45 29.85-32.2L29.85-32.2 29.85-11.25Q29.85-9.4 30.3-8.45 30.75-7.5 31.95-7.5L31.95-7.5ZM59.84 0L49.34 0 44.74-42.95 53.14-42.95 55.55-15.85 57.95-42.95 65.94-42.95 68.25-15.85 70.55-42.95 79.05-42.95 74.34 0 64.05 0 61.89-20.7 59.84 0ZM81.59 0L81.59-42.95 92.94-42.95Q98.09-42.95 100.29-39.63 102.49-36.3 102.49-29.9L102.49-29.9Q102.49-23.5 100.54-20.25 98.59-17 93.54-17L93.54-17 90.04-17 90.04 0 81.59 0ZM90.04-24.75L90.54-24.75Q92.09-24.75 92.82-25.33 93.54-25.9 93.77-26.98 93.99-28.05 93.99-30.05L93.99-30.05Q93.99-32.75 93.39-33.95 92.79-35.15 90.99-35.15L90.99-35.15 90.04-35.15 90.04-24.75Z" opacity="1" transform="matrix(1,0,0,1,0,0)" fill="#f9cc0b" class="undefined-text-0" data-fill-palette-color="primary" id="text-0"></path></svg></g></svg></g></svg></g></svg></g></svg></g><defs></defs></svg><rect width="395.52" height="169.6470588235294" fill="none" stroke="none" visibility="hidden"></rect></g></svg></g></svg>